<mxfile host="www.draw.io" modified="2020-02-11T09:30:40.960Z" agent="Mozilla/5.0 (Windows NT 6.1; Win64; x64; rv:72.0) Gecko/20100101 Firefox/72.0" etag="WV8a9fRFwTaOwZ5KNwOx" version="12.6.7" type="github">
  <diagram name="Page-1" id="55a83fd1-7818-8e21-69c5-c3457e3827bb">
    <mxGraphModel dx="1422" dy="769" grid="1" gridSize="10" guides="1" tooltips="1" connect="1" arrows="1" fold="1" page="1" pageScale="1" pageWidth="1100" pageHeight="850" background="#ffffff" math="0" shadow="0">
      <root>
        <mxCell id="0"/>
        <mxCell id="1" parent="0"/>
        <mxCell id="69ecfefc5c41e42c-18" style="edgeStyle=none;rounded=0;html=1;labelBackgroundColor=none;endArrow=none;strokeWidth=2;fontFamily=Verdana;fontSize=22;entryX=0.5;entryY=1;entryDx=0;entryDy=0;exitX=0.375;exitY=0.875;exitDx=0;exitDy=0;exitPerimeter=0;" parent="1" source="69ecfefc5c41e42c-1" target="wjrlhwrrh1HM8yH2VJJO-1" edge="1">
          <mxGeometry relative="1" as="geometry">
            <mxPoint x="628" y="420" as="sourcePoint"/>
            <mxPoint x="650" y="380" as="targetPoint"/>
          </mxGeometry>
        </mxCell>
        <mxCell id="wjrlhwrrh1HM8yH2VJJO-20" value="LAN a0:04:60:77:09:bf" style="text;html=1;align=center;verticalAlign=middle;resizable=0;points=[];labelBackgroundColor=#ffffff;" vertex="1" connectable="0" parent="69ecfefc5c41e42c-18">
          <mxGeometry x="-0.1059" y="2" relative="1" as="geometry">
            <mxPoint x="-68" y="6" as="offset"/>
          </mxGeometry>
        </mxCell>
        <mxCell id="69ecfefc5c41e42c-1" value="&lt;div&gt;Netgear R7000&lt;/div&gt;" style="image;html=1;labelBackgroundColor=#ffffff;image=img/lib/clip_art/networking/Wireless_Router_128x128.png;rounded=1;shadow=0;comic=0;strokeWidth=2;fontSize=22" parent="1" vertex="1">
          <mxGeometry x="590" y="380" width="80" height="80" as="geometry"/>
        </mxCell>
        <mxCell id="69ecfefc5c41e42c-2" value="Internet" style="image;html=1;labelBackgroundColor=#ffffff;image=img/lib/clip_art/networking/Cloud_128x128.png;rounded=1;shadow=0;comic=0;strokeWidth=2;fontSize=22;labelPosition=center;verticalLabelPosition=top;align=center;verticalAlign=bottom;" parent="1" vertex="1">
          <mxGeometry x="580" y="50" width="80" height="80" as="geometry"/>
        </mxCell>
        <mxCell id="69ecfefc5c41e42c-19" style="edgeStyle=none;rounded=0;html=1;labelBackgroundColor=none;endArrow=none;strokeWidth=2;fontFamily=Verdana;fontSize=22;entryX=0.5;entryY=0.75;entryDx=0;entryDy=0;entryPerimeter=0;exitX=0.5;exitY=0;exitDx=0;exitDy=0;" parent="1" source="wjrlhwrrh1HM8yH2VJJO-1" target="69ecfefc5c41e42c-2" edge="1">
          <mxGeometry relative="1" as="geometry">
            <mxPoint x="390" y="260" as="sourcePoint"/>
            <mxPoint x="350" y="180" as="targetPoint"/>
          </mxGeometry>
        </mxCell>
        <mxCell id="69ecfefc5c41e42c-4" value="Tablet" style="image;html=1;labelBackgroundColor=#ffffff;image=img/lib/clip_art/computers/iPad_128x128.png;rounded=1;shadow=0;comic=0;strokeWidth=2;fontSize=22" parent="1" vertex="1">
          <mxGeometry x="500" y="700" width="80" height="80" as="geometry"/>
        </mxCell>
        <mxCell id="69ecfefc5c41e42c-5" value="&lt;font style=&quot;font-size: 15px&quot;&gt;PC&lt;/font&gt;" style="image;html=1;labelBackgroundColor=#ffffff;image=img/lib/clip_art/computers/Monitor_Tower_128x128.png;rounded=1;shadow=0;comic=0;strokeWidth=2;fontSize=22" parent="1" vertex="1">
          <mxGeometry x="999" y="530" width="80" height="80" as="geometry"/>
        </mxCell>
        <mxCell id="69ecfefc5c41e42c-6" value="Printer" style="image;html=1;labelBackgroundColor=#ffffff;image=img/lib/clip_art/computers/Printer_128x128.png;rounded=1;shadow=0;comic=0;strokeWidth=2;fontSize=22" parent="1" vertex="1">
          <mxGeometry x="150" y="440" width="80" height="80" as="geometry"/>
        </mxCell>
        <mxCell id="69ecfefc5c41e42c-7" value="PC" style="image;html=1;labelBackgroundColor=#ffffff;image=img/lib/clip_art/computers/Workstation_128x128.png;rounded=1;shadow=0;comic=0;strokeWidth=2;fontSize=22" parent="1" vertex="1">
          <mxGeometry x="230" y="570" width="80" height="80" as="geometry"/>
        </mxCell>
        <mxCell id="69ecfefc5c41e42c-8" value="Mobile" style="image;html=1;labelBackgroundColor=#ffffff;image=img/lib/clip_art/telecommunication/iPhone_128x128.png;rounded=1;shadow=0;comic=0;strokeWidth=2;fontSize=22" parent="1" vertex="1">
          <mxGeometry x="320" y="600" width="80" height="80" as="geometry"/>
        </mxCell>
        <mxCell id="69ecfefc5c41e42c-9" value="Laptop" style="image;html=1;labelBackgroundColor=#ffffff;image=img/lib/clip_art/computers/Netbook_128x128.png;rounded=1;shadow=0;comic=0;strokeColor=#000000;strokeWidth=2;fillColor=#FFFFFF;fontSize=22;fontColor=#000000;" parent="1" vertex="1">
          <mxGeometry x="430" y="610" width="80" height="80" as="geometry"/>
        </mxCell>
        <mxCell id="69ecfefc5c41e42c-10" value="Laptop" style="image;html=1;labelBackgroundColor=#ffffff;image=img/lib/clip_art/computers/Netbook_128x128.png;rounded=1;shadow=0;comic=0;strokeWidth=2;fontSize=22" parent="1" vertex="1">
          <mxGeometry x="320" y="710" width="80" height="80" as="geometry"/>
        </mxCell>
        <mxCell id="wjrlhwrrh1HM8yH2VJJO-1" value="&lt;div&gt;&lt;font style=&quot;font-size: 20px&quot;&gt;华为&lt;/font&gt;&lt;font size=&quot;1&quot;&gt;&lt;span style=&quot;font-size: 20px ; font-family: &amp;#34;microsoft yahei&amp;#34; , , &amp;#34;pingfang sc&amp;#34; , &amp;#34;noto sans cjk sc&amp;#34; , sans-serif , &amp;#34;sf pro&amp;#34; , &amp;#34;roboto&amp;#34; , &amp;#34;droid sans&amp;#34; , &amp;#34;helvetica&amp;#34; , &amp;#34;tahoma&amp;#34; , &amp;#34;arial&amp;#34; , &amp;#34;hiragino sans gb&amp;#34; , &amp;#34;heiti sc&amp;#34; ; font-weight: 400 ; font-style: normal ; color: black ; background: transparent none repeat scroll 0% 0% ; letter-spacing: 0pt ; vertical-align: baseline ; white-space: pre&quot;&gt;HG8120C&lt;/span&gt;&lt;/font&gt;&lt;/div&gt;&lt;div&gt;&lt;font size=&quot;1&quot;&gt;&lt;span style=&quot;font-size: 20px ; font-family: &amp;#34;microsoft yahei&amp;#34; , , &amp;#34;pingfang sc&amp;#34; , &amp;#34;noto sans cjk sc&amp;#34; , sans-serif , &amp;#34;sf pro&amp;#34; , &amp;#34;roboto&amp;#34; , &amp;#34;droid sans&amp;#34; , &amp;#34;helvetica&amp;#34; , &amp;#34;tahoma&amp;#34; , &amp;#34;arial&amp;#34; , &amp;#34;hiragino sans gb&amp;#34; , &amp;#34;heiti sc&amp;#34; ; font-weight: 400 ; font-style: normal ; color: black ; background: transparent none repeat scroll 0% 0% ; letter-spacing: 0pt ; vertical-align: baseline ; white-space: pre&quot;&gt;(&lt;/span&gt;&lt;/font&gt;&lt;font size=&quot;1&quot;&gt;&lt;span style=&quot;font-size: 20px ; font-family: &amp;#34;microsoft yahei&amp;#34; , , &amp;#34;pingfang sc&amp;#34; , &amp;#34;noto sans cjk sc&amp;#34; , sans-serif , &amp;#34;sf pro&amp;#34; , &amp;#34;roboto&amp;#34; , &amp;#34;droid sans&amp;#34; , &amp;#34;helvetica&amp;#34; , &amp;#34;tahoma&amp;#34; , &amp;#34;arial&amp;#34; , &amp;#34;hiragino sans gb&amp;#34; , &amp;#34;heiti sc&amp;#34; ; font-weight: 400 ; font-style: normal ; color: black ; background: transparent none repeat scroll 0% 0% ; letter-spacing: 0pt ; vertical-align: baseline ; white-space: pre&quot;&gt;&lt;font style=&quot;font-size: 20px&quot;&gt;EPON&lt;/font&gt;)&lt;/span&gt;&lt;/font&gt;&lt;/div&gt;" style="image;html=1;labelBackgroundColor=#ffffff;image=img/lib/clip_art/networking/Modem_128x128.png" vertex="1" parent="1">
          <mxGeometry x="580" y="200" width="80" height="80" as="geometry"/>
        </mxCell>
        <mxCell id="wjrlhwrrh1HM8yH2VJJO-12" value="&lt;font style=&quot;font-size: 15px&quot;&gt;TCL HCD 868(79)&lt;/font&gt;" style="verticalLabelPosition=bottom;aspect=fixed;html=1;verticalAlign=top;strokeColor=none;align=center;outlineConnect=0;shape=mxgraph.citrix.ip_phone;" vertex="1" parent="1">
          <mxGeometry x="858.31" y="80" width="103.38" height="50" as="geometry"/>
        </mxCell>
        <mxCell id="wjrlhwrrh1HM8yH2VJJO-14" style="edgeStyle=none;rounded=0;html=1;labelBackgroundColor=none;endArrow=none;strokeWidth=2;fontFamily=Verdana;fontSize=22;entryX=1;entryY=0.5;entryDx=0;entryDy=0;" edge="1" parent="1" source="wjrlhwrrh1HM8yH2VJJO-12" target="wjrlhwrrh1HM8yH2VJJO-1">
          <mxGeometry relative="1" as="geometry">
            <mxPoint x="630" y="210" as="sourcePoint"/>
            <mxPoint x="630" y="120" as="targetPoint"/>
          </mxGeometry>
        </mxCell>
        <mxCell id="wjrlhwrrh1HM8yH2VJJO-38" value="&lt;div&gt;语音&lt;/div&gt;" style="text;html=1;align=center;verticalAlign=middle;resizable=0;points=[];labelBackgroundColor=#ffffff;" vertex="1" connectable="0" parent="wjrlhwrrh1HM8yH2VJJO-14">
          <mxGeometry x="0.1299" y="-1" relative="1" as="geometry">
            <mxPoint y="-21.36" as="offset"/>
          </mxGeometry>
        </mxCell>
        <mxCell id="wjrlhwrrh1HM8yH2VJJO-15" value="&lt;font style=&quot;font-size: 15px&quot;&gt;ChanghongTV&lt;/font&gt;" style="image;html=1;labelBackgroundColor=#ffffff;image=img/lib/clip_art/computers/Monitor_128x128.png" vertex="1" parent="1">
          <mxGeometry x="999" y="420" width="80" height="80" as="geometry"/>
        </mxCell>
        <mxCell id="wjrlhwrrh1HM8yH2VJJO-16" style="edgeStyle=none;rounded=0;html=1;labelBackgroundColor=none;endArrow=none;strokeWidth=2;fontFamily=Verdana;fontSize=22;entryX=1;entryY=0.5;entryDx=0;entryDy=0;" edge="1" parent="1" target="69ecfefc5c41e42c-1">
          <mxGeometry relative="1" as="geometry">
            <mxPoint x="950" y="420" as="sourcePoint"/>
            <mxPoint x="720" y="440" as="targetPoint"/>
            <Array as="points"/>
          </mxGeometry>
        </mxCell>
        <mxCell id="wjrlhwrrh1HM8yH2VJJO-35" value="LAN1" style="text;html=1;align=center;verticalAlign=middle;resizable=0;points=[];labelBackgroundColor=#ffffff;" vertex="1" connectable="0" parent="wjrlhwrrh1HM8yH2VJJO-16">
          <mxGeometry x="0.15" y="1" relative="1" as="geometry">
            <mxPoint x="61" y="-16" as="offset"/>
          </mxGeometry>
        </mxCell>
        <mxCell id="wjrlhwrrh1HM8yH2VJJO-23" style="edgeStyle=none;rounded=0;html=1;labelBackgroundColor=none;endArrow=none;strokeWidth=2;fontFamily=Verdana;fontSize=22;entryX=1;entryY=0.5;entryDx=0;entryDy=0;exitX=0;exitY=0.5;exitDx=0;exitDy=0;" edge="1" parent="1" source="69ecfefc5c41e42c-5" target="69ecfefc5c41e42c-1">
          <mxGeometry relative="1" as="geometry">
            <mxPoint x="921.69" y="439" as="sourcePoint"/>
            <mxPoint x="700" y="439" as="targetPoint"/>
            <Array as="points">
              <mxPoint x="840" y="570"/>
            </Array>
          </mxGeometry>
        </mxCell>
        <mxCell id="wjrlhwrrh1HM8yH2VJJO-24" value="LAN3" style="text;html=1;align=center;verticalAlign=middle;resizable=0;points=[];labelBackgroundColor=#ffffff;" vertex="1" connectable="0" parent="wjrlhwrrh1HM8yH2VJJO-23">
          <mxGeometry x="-0.1418" y="-2" relative="1" as="geometry">
            <mxPoint x="13.93" y="-3.87" as="offset"/>
          </mxGeometry>
        </mxCell>
        <mxCell id="wjrlhwrrh1HM8yH2VJJO-25" value="&lt;div&gt;1C-1B-0D-9B-FC-7A&lt;/div&gt;&lt;div&gt;192.168.63.15&lt;br&gt;&lt;/div&gt;" style="text;html=1;align=center;verticalAlign=middle;resizable=0;points=[];labelBackgroundColor=#ffffff;" vertex="1" connectable="0" parent="wjrlhwrrh1HM8yH2VJJO-23">
          <mxGeometry x="-0.6483" y="2" relative="1" as="geometry">
            <mxPoint x="15" y="-22" as="offset"/>
          </mxGeometry>
        </mxCell>
        <mxCell id="wjrlhwrrh1HM8yH2VJJO-26" style="edgeStyle=none;rounded=0;html=1;labelBackgroundColor=none;endArrow=none;strokeWidth=2;fontFamily=Verdana;fontSize=22;entryX=1;entryY=0.5;entryDx=0;entryDy=0;exitX=0;exitY=0.5;exitDx=0;exitDy=0;" edge="1" parent="1" source="wjrlhwrrh1HM8yH2VJJO-15" target="69ecfefc5c41e42c-1">
          <mxGeometry relative="1" as="geometry">
            <mxPoint x="920" y="530" as="sourcePoint"/>
            <mxPoint x="730" y="440" as="targetPoint"/>
            <Array as="points">
              <mxPoint x="840" y="460"/>
            </Array>
          </mxGeometry>
        </mxCell>
        <mxCell id="wjrlhwrrh1HM8yH2VJJO-27" value="LAN2" style="text;html=1;align=center;verticalAlign=middle;resizable=0;points=[];labelBackgroundColor=#ffffff;" vertex="1" connectable="0" parent="wjrlhwrrh1HM8yH2VJJO-26">
          <mxGeometry x="-0.1418" y="-2" relative="1" as="geometry">
            <mxPoint x="-6" y="-8" as="offset"/>
          </mxGeometry>
        </mxCell>
        <mxCell id="wjrlhwrrh1HM8yH2VJJO-28" value="&lt;div&gt;00:6C:FD:90:9D:05&lt;/div&gt;&lt;div&gt;192.168.63.14&lt;br&gt;&lt;/div&gt;" style="text;html=1;align=center;verticalAlign=middle;resizable=0;points=[];labelBackgroundColor=#ffffff;" vertex="1" connectable="0" parent="wjrlhwrrh1HM8yH2VJJO-26">
          <mxGeometry x="-0.6483" y="2" relative="1" as="geometry">
            <mxPoint x="-1" y="-22" as="offset"/>
          </mxGeometry>
        </mxCell>
        <mxCell id="wjrlhwrrh1HM8yH2VJJO-31" style="edgeStyle=none;rounded=0;html=1;labelBackgroundColor=none;endArrow=none;strokeWidth=2;fontFamily=Verdana;fontSize=22;entryX=1;entryY=0.5;entryDx=0;entryDy=0;" edge="1" parent="1" target="69ecfefc5c41e42c-1">
          <mxGeometry relative="1" as="geometry">
            <mxPoint x="1000" y="690" as="sourcePoint"/>
            <mxPoint x="680" y="450" as="targetPoint"/>
            <Array as="points">
              <mxPoint x="840" y="690"/>
            </Array>
          </mxGeometry>
        </mxCell>
        <mxCell id="wjrlhwrrh1HM8yH2VJJO-32" value="LAN4" style="text;html=1;align=center;verticalAlign=middle;resizable=0;points=[];labelBackgroundColor=#ffffff;" vertex="1" connectable="0" parent="wjrlhwrrh1HM8yH2VJJO-31">
          <mxGeometry x="-0.1418" y="-2" relative="1" as="geometry">
            <mxPoint x="32.82" y="29.990000000000002" as="offset"/>
          </mxGeometry>
        </mxCell>
        <mxCell id="wjrlhwrrh1HM8yH2VJJO-34" style="edgeStyle=none;rounded=0;html=1;labelBackgroundColor=none;endArrow=none;strokeWidth=2;fontFamily=Verdana;fontSize=22;entryX=1;entryY=0.75;entryDx=0;entryDy=0;exitX=0;exitY=0.5;exitDx=0;exitDy=0;" edge="1" parent="1" source="wjrlhwrrh1HM8yH2VJJO-36" target="wjrlhwrrh1HM8yH2VJJO-1">
          <mxGeometry relative="1" as="geometry">
            <mxPoint x="860" y="260" as="sourcePoint"/>
            <mxPoint x="680" y="450" as="targetPoint"/>
          </mxGeometry>
        </mxCell>
        <mxCell id="wjrlhwrrh1HM8yH2VJJO-37" value="IPTV" style="text;html=1;align=center;verticalAlign=middle;resizable=0;points=[];labelBackgroundColor=#ffffff;" vertex="1" connectable="0" parent="wjrlhwrrh1HM8yH2VJJO-34">
          <mxGeometry x="0.17" y="1" relative="1" as="geometry">
            <mxPoint x="17" y="-21" as="offset"/>
          </mxGeometry>
        </mxCell>
        <mxCell id="wjrlhwrrh1HM8yH2VJJO-36" value="&lt;font style=&quot;font-size: 15px&quot;&gt;中兴机顶盒&lt;/font&gt;" style="image;html=1;labelBackgroundColor=#ffffff;image=img/lib/clip_art/computers/Harddrive_128x128.png" vertex="1" parent="1">
          <mxGeometry x="870" y="220" width="80" height="80" as="geometry"/>
        </mxCell>
      </root>
    </mxGraphModel>
  </diagram>
</mxfile>
